<svg width="31" height="27" viewBox="0 0 31 27" fill="none" xmlns="http://www.w3.org/2000/svg">
<path d="M30.7855 3.65643L26.6664 0.153286C26.54 0.0451087 26.372 -0.0099016 26.2062 0.00146925C26.0383 0.0122255 25.8814 0.0869043 25.7702 0.209525L10.829 16.6665L5.5168 9.86246C5.41549 9.73277 5.26465 9.64703 5.09793 9.6249C4.93153 9.60093 4.76163 9.64457 4.62762 9.74322L0.252261 12.9418C-0.0275107 13.1465 -0.083084 13.5319 0.128412 13.8026L9.96456 26.4015C10.0795 26.5487 10.2574 26.6385 10.4479 26.6452C10.4555 26.6452 10.4635 26.6452 10.4711 26.6452C10.6534 26.6452 10.8274 26.5696 10.9484 26.4362L30.8404 4.5243C31.0722 4.26953 31.0465 3.88077 30.7829 3.65705" fill="#3EEC64"/>
</svg>
