<svg width="20" height="20" viewBox="0 0 20 20" fill="none" xmlns="http://www.w3.org/2000/svg">
<path d="M14.9995 0.00422233L12.406 6.10352e-05C9.49307 6.10352e-05 7.61008 1.93194 7.61008 4.92204V7.1914H5.00241C4.77708 7.1914 4.5946 7.37408 4.5946 7.59941V10.8875C4.5946 11.1128 4.77728 11.2953 5.00241 11.2953H7.61008V19.592C7.61008 19.8174 7.79256 19.9999 8.01789 19.9999H11.4202C11.6455 19.9999 11.828 19.8172 11.828 19.592V11.2953H14.8769C15.1023 11.2953 15.2848 11.1128 15.2848 10.8875L15.286 7.59941C15.286 7.49122 15.2429 7.3876 15.1666 7.31103C15.0902 7.23447 14.9862 7.1914 14.878 7.1914H11.828V5.26763C11.828 4.34299 12.0483 3.8736 13.2528 3.8736L14.9999 3.87298C15.225 3.87298 15.4075 3.69029 15.4075 3.46517V0.412029C15.4075 0.187111 15.2252 0.00463846 15.0003 0.00422233" fill="#767676"/>
</svg>
