<svg width="20" height="20" viewBox="0 0 20 20" fill="none" xmlns="http://www.w3.org/2000/svg">
<path d="M14.4805 0H5.51913C2.47588 0 0 2.476 0 5.51924V14.4806C0 17.524 2.47588 19.9999 5.51913 19.9999H14.4805C17.524 19.9999 19.9999 17.5239 19.9999 14.4806V5.51924C20 2.476 17.524 0 14.4805 0ZM18.2255 14.4806C18.2255 16.5455 16.5455 18.2254 14.4806 18.2254H5.51913C3.45433 18.2255 1.77449 16.5455 1.77449 14.4806V5.51924C1.77449 3.45445 3.45433 1.77449 5.51913 1.77449H14.4805C16.5454 1.77449 18.2254 3.45445 18.2254 5.51924V14.4806H18.2255Z" fill="#767676"/>
<path d="M10.0001 4.8468C7.1586 4.8468 4.84668 7.1586 4.84668 10.0003C4.84668 12.8418 7.15848 15.1535 10.0001 15.1535C12.8418 15.1535 15.1536 12.8418 15.1536 10.0003C15.1536 7.15872 12.8418 4.8468 10.0001 4.8468ZM10.0001 13.3785C8.13705 13.3785 6.62117 11.8629 6.62117 9.99979C6.62117 8.13658 8.13693 6.62082 10.0001 6.62082C11.8634 6.62082 13.3791 8.13658 13.3791 9.99979C13.3791 11.8629 11.8632 13.3785 10.0001 13.3785Z" fill="#767676"/>
<path d="M15.3694 3.34192C15.0275 3.34192 14.6917 3.48033 14.4502 3.72285C14.2076 3.96418 14.0681 4.30016 14.0681 4.64323C14.0681 4.98524 14.2077 5.3211 14.4502 5.56362C14.6916 5.80495 15.0275 5.94455 15.3694 5.94455C15.7125 5.94455 16.0473 5.80495 16.2898 5.56362C16.5323 5.3211 16.6707 4.98512 16.6707 4.64323C16.6707 4.30016 16.5323 3.96418 16.2898 3.72285C16.0485 3.48033 15.7125 3.34192 15.3694 3.34192Z" fill="#767676"/>
</svg>
