<svg width="19" height="20" viewBox="0 0 19 20" fill="none" xmlns="http://www.w3.org/2000/svg">
<g clip-path="url(#clip0_6_215)">
<path d="M8.56479 14.0866C7.09185 13.9249 5.76298 13.543 4.62673 12.6078C4.48564 12.4913 4.33998 12.379 4.21123 12.2489C3.71355 11.7458 3.66341 11.1696 4.05721 10.5757C4.39411 10.0676 4.95964 9.93162 5.54747 10.2234C5.66129 10.28 5.76974 10.3506 5.87362 10.4264C7.99269 11.959 10.9037 12.0013 13.0308 10.4953C13.2415 10.3252 13.4668 10.1865 13.7278 10.1157C14.2355 9.97854 14.7089 10.1748 14.9813 10.6423C15.2925 11.1763 15.2885 11.698 14.9051 12.1128C14.3169 12.7483 13.6094 13.2081 12.8234 13.529C12.0802 13.8323 11.2661 13.985 10.4604 14.0864C10.582 14.2257 10.6393 14.2942 10.7153 14.3746C11.8094 15.5317 12.9082 16.685 13.9987 17.8446C14.3702 18.2401 14.4478 18.7304 14.2432 19.1904C14.0196 19.6931 13.5189 20.0239 13.028 19.9885C12.717 19.9659 12.4744 19.8029 12.2589 19.5744C11.4333 18.6999 10.5921 17.8415 9.78322 16.9504C9.54781 16.6913 9.43459 16.7409 9.22684 16.9653C8.39624 17.8653 7.55212 18.7516 6.70302 19.6328C6.32175 20.0285 5.86804 20.0997 5.42588 19.8737C4.95586 19.6339 4.65678 19.1288 4.67986 18.6213C4.69578 18.278 4.85617 18.0157 5.07984 17.7813C6.16255 16.6433 7.24229 15.5024 8.32242 14.3624C8.39385 14.2866 8.46052 14.2062 8.56459 14.0891" fill="#767676"/>
<path d="M9.46221 10.1234C6.83451 10.114 4.68042 7.82099 4.69514 5.05018C4.71027 2.24921 6.86635 -0.00841642 9.52071 -3.7789e-05C12.1797 0.00750298 14.3144 2.29717 14.3005 5.12726C14.287 7.892 12.1174 10.1329 9.46301 10.1232L9.46221 10.1234ZM11.8509 5.05625C11.8463 3.68069 10.8056 2.58561 9.50141 2.58435C8.18627 2.58288 7.13618 3.69787 7.14633 5.086C7.15608 6.45632 8.20577 7.54366 9.51355 7.53863C10.8173 7.53382 11.8553 6.43161 11.8509 5.05625Z" fill="#767676"/>
</g>
<defs>
<clipPath id="clip0_6_215">
<rect width="19" height="20" fill="white"/>
</clipPath>
</defs>
</svg>
