<svg width="20" height="20" viewBox="0 0 20 20" fill="none" xmlns="http://www.w3.org/2000/svg">
<g clip-path="url(#clip0_6_219)">
<path d="M19.1716 13.5094C18.5762 12.7951 17.8754 12.1856 17.2124 11.5383C16.6142 10.9548 16.5765 10.6164 17.0573 9.94299C17.5821 9.20804 18.1465 8.50127 18.6761 7.76964C19.1704 7.08588 19.6757 6.40399 19.9358 5.5853C20.1008 5.06445 19.9549 4.83439 19.4208 4.74319C19.3287 4.72723 19.2336 4.7264 19.1399 4.7264L15.9711 4.72267C15.5808 4.71687 15.365 4.88703 15.227 5.23295C15.0407 5.70054 14.8485 6.16771 14.6266 6.61892C14.1229 7.64196 13.5604 8.63081 12.7718 9.46815C12.5979 9.65282 12.4055 9.88682 12.115 9.79003C11.7514 9.65738 11.6443 9.0584 11.6503 8.8559L11.6472 5.19834C11.5767 4.67583 11.4608 4.44287 10.9421 4.34131L7.65032 4.34193C7.21092 4.34193 6.9906 4.51168 6.75598 4.78651C6.62064 4.94527 6.57981 5.04828 6.85795 5.10093C7.4043 5.20456 7.71208 5.55815 7.79375 6.10594C7.92473 6.98121 7.91562 7.86 7.84017 8.7388C7.81799 8.99539 7.77385 9.25136 7.67208 9.49095C7.5129 9.86755 7.25548 9.94424 6.91827 9.71252C6.61256 9.50277 6.39783 9.2068 6.18767 8.90958C5.3982 7.79409 4.76833 6.59114 4.25474 5.32705C4.10634 4.96185 3.85037 4.7405 3.46341 4.73449C2.5127 4.71936 1.56178 4.71687 0.611064 4.73531C0.0390191 4.74609 -0.131558 5.02382 0.101405 5.54239C1.13689 7.84508 2.28947 10.085 3.79399 12.1248C4.56646 13.1715 5.45417 14.0959 6.59908 14.7509C7.89758 15.4933 9.29557 15.7167 10.7671 15.6479C11.4565 15.6156 11.6635 15.4363 11.6955 14.7492C11.717 14.2791 11.7703 13.8118 12.0022 13.3894C12.2298 12.9748 12.5745 12.8959 12.9718 13.1537C13.1705 13.2828 13.338 13.4472 13.4962 13.6205C13.8842 14.0449 14.2583 14.4822 14.661 14.8924C15.1661 15.4064 15.7644 15.7101 16.5168 15.6481L19.4288 15.6487C19.8981 15.618 20.1414 15.0427 19.872 14.5189C19.6827 14.1521 19.4344 13.8254 19.1708 13.5094" fill="#767676"/>
</g>
<defs>
<clipPath id="clip0_6_219">
<rect width="20" height="20" fill="white"/>
</clipPath>
</defs>
</svg>
