<svg width="17" height="20" viewBox="0 0 17 20" fill="none" xmlns="http://www.w3.org/2000/svg">
<path d="M14.096 14.6298H12.9985L13.0037 13.9922C13.0037 13.7089 13.2363 13.4772 13.5205 13.4772H13.5905C13.8754 13.4772 14.1087 13.7089 14.1087 13.9922L14.096 14.6298ZM9.97945 13.2636C9.70102 13.2636 9.47326 13.4507 9.47326 13.6798V16.7803C9.47326 17.0089 9.70102 17.1956 9.97945 17.1956C10.259 17.1956 10.487 17.0089 10.487 16.7803V13.6798C10.487 13.4505 10.259 13.2636 9.97945 13.2636ZM16.6656 11.5293V17.4275C16.6656 18.8423 15.4388 20 13.9391 20H2.72668C1.22657 20 0 18.8423 0 17.4275V11.5293C0 10.1145 1.22657 8.95664 2.72668 8.95664H13.9391C15.4388 8.95664 16.6656 10.1145 16.6656 11.5293ZM3.47551 18.0679L3.47462 11.8549L4.86451 11.8553V10.9347L1.15947 10.9291V11.8342L2.31604 11.8375V18.0681H3.47551V18.0679ZM7.64185 12.7806H6.48305V16.0983C6.48305 16.5783 6.51216 16.8182 6.48127 16.9029C6.38706 17.1602 5.96354 17.4335 5.79844 16.9307C5.77044 16.8427 5.79511 16.5772 5.79466 16.1212L5.78999 12.7814H4.63764L4.64119 16.0696C4.64208 16.5736 4.62986 16.9493 4.64519 17.1204C4.67341 17.422 4.66341 17.7735 4.94317 17.9744C5.46446 18.3499 6.46372 17.9184 6.7137 17.3815L6.71348 18.0666L7.64407 18.0677V12.7814L7.64185 12.7806ZM11.3511 16.5812L11.3487 13.8198C11.3478 12.7675 10.5605 12.1373 9.49193 12.9888L9.4966 10.9358L8.33913 10.9376L8.33357 18.0237L9.2855 18.0099L9.37216 17.5686C10.5883 18.6841 11.3529 17.9197 11.3511 16.5812ZM14.9777 16.2152L14.1089 16.2198C14.1085 16.2543 14.1071 16.2941 14.1087 16.3374V16.8222C14.1087 17.0818 13.8943 17.2931 13.6338 17.2931H13.4636C13.2028 17.2931 12.9883 17.0818 12.9883 16.8222V16.7685V16.2352V15.547H14.9779V14.7982C14.9779 14.2509 14.9639 13.7038 14.9186 13.391C14.7762 12.4013 13.387 12.2442 12.6855 12.7508C12.4653 12.909 12.297 13.1208 12.1993 13.4052C12.1006 13.6898 12.0515 14.0785 12.0515 14.5726V16.2192C12.052 18.9563 15.3766 18.5694 14.9799 16.2152H14.9777ZM10.5225 7.27588C10.5823 7.4212 10.6752 7.53897 10.8012 7.62785C10.9256 7.7154 11.0847 7.7594 11.2753 7.7594C11.4424 7.7594 11.5904 7.71429 11.7193 7.62118C11.8477 7.52852 11.956 7.39009 12.0444 7.20544L12.0224 7.66007H13.3141V2.16694H12.2973V6.44217C12.2973 6.6737 12.1066 6.86324 11.8735 6.86324C11.6418 6.86324 11.4504 6.6737 11.4504 6.44217V2.16694H10.3892V5.87199C10.3892 6.34395 10.3979 6.65859 10.4119 6.81814C10.4263 6.97657 10.4627 7.12856 10.5225 7.27588ZM6.60815 4.17345C6.60815 3.64616 6.65215 3.23441 6.73948 2.93755C6.82747 2.64179 6.98546 2.40404 7.21433 2.22472C7.44253 2.04451 7.73473 1.95429 8.09004 1.95429C8.3889 1.95429 8.64488 2.01295 8.85864 2.12783C9.07352 2.24338 9.23928 2.39337 9.35416 2.57847C9.47126 2.76423 9.55081 2.9551 9.59325 3.15042C9.63658 3.34841 9.65792 3.64705 9.65792 4.04991V5.43913C9.65792 5.94865 9.63747 6.32351 9.5977 6.56127C9.55837 6.79991 9.47393 7.02123 9.34305 7.22788C9.21417 7.4332 9.04774 7.58674 8.84598 7.68473C8.64199 7.78362 8.40868 7.83206 8.14514 7.83206C7.85072 7.83206 7.60274 7.79139 7.39831 7.70651C7.19322 7.62207 7.03479 7.49475 6.92191 7.32565C6.80792 7.15633 6.7277 6.95013 6.67926 6.7097C6.6306 6.4695 6.60749 6.10819 6.60749 5.62667L6.60815 4.17234V4.17345ZM7.61985 6.35439C7.61985 6.66548 7.85139 6.91946 8.13337 6.91946C8.41557 6.91946 8.64622 6.66548 8.64622 6.35439V3.43018C8.64622 3.11953 8.41557 2.86555 8.13337 2.86555C7.85139 2.86555 7.61985 3.11953 7.61985 3.43018V6.35439ZM4.04457 7.83095H5.26315L5.26448 3.61794L6.70437 0.0088882H5.37158L4.60609 2.68868L3.8297 0H2.51069L4.04257 3.61839L4.04457 7.82939" fill="#767676"/>
</svg>
